<svg width="17" height="18" viewBox="0 0 17 18" fill="none" xmlns="http://www.w3.org/2000/svg">
<g clip-path="url(#clip0_37_41)">
<path d="M2.5689 17.5H14.4311C15.6746 17.5 16.6852 16.4894 16.6852 15.2459V4.01332C16.6852 2.7698 15.6746 1.75924 14.4311 1.75924H13.5371V1.12962C13.5371 0.783318 13.2537 0.5 12.9074 0.5C12.5611 0.5 12.2778 0.783318 12.2778 1.12962V1.75924H4.72225V1.12962C4.72225 0.783318 4.43888 0.5 4.09258 0.5C3.74628 0.5 3.46296 0.783318 3.46296 1.12962V1.75924H2.5689C1.32538 1.75924 0.314819 2.7698 0.314819 4.01332V15.2459C0.314819 16.4894 1.32538 17.5 2.5689 17.5ZM1.57411 4.01332C1.57411 3.46556 2.02114 3.01852 2.5689 3.01852H3.46296V3.64814C3.46296 3.99444 3.74628 4.27776 4.09258 4.27776C4.43888 4.27776 4.7222 3.99444 4.7222 3.64814V3.01852H12.2778V3.64814C12.2778 3.99444 12.5611 4.27776 12.9074 4.27776C13.2537 4.27776 13.537 3.99444 13.537 3.64814V3.01852H14.4311C14.9788 3.01852 15.4259 3.46556 15.4259 4.01332V15.2459C15.4259 15.7937 14.9788 16.2407 14.4311 16.2407H2.5689C2.02114 16.2407 1.57411 15.7937 1.57411 15.2459V4.01332Z" fill="#858585"/>
<path d="M4.87964 7.74079C5.3143 7.74079 5.66667 7.38843 5.66667 6.95377C5.66667 6.51911 5.3143 6.16675 4.87964 6.16675C4.44498 6.16675 4.09262 6.51911 4.09262 6.95377C4.09262 7.38843 4.44498 7.74079 4.87964 7.74079Z" fill="#858585"/>
<path d="M8.3426 7.74079C8.77726 7.74079 9.12962 7.38843 9.12962 6.95377C9.12962 6.51911 8.77726 6.16675 8.3426 6.16675C7.90793 6.16675 7.55557 6.51911 7.55557 6.95377C7.55557 7.38843 7.90793 7.74079 8.3426 7.74079Z" fill="#858585"/>
<path d="M11.8055 7.74079C12.2402 7.74079 12.5926 7.38843 12.5926 6.95377C12.5926 6.51911 12.2402 6.16675 11.8055 6.16675C11.3709 6.16675 11.0185 6.51911 11.0185 6.95377C11.0185 7.38843 11.3709 7.74079 11.8055 7.74079Z" fill="#858585"/>
<path d="M4.87964 10.8887C5.3143 10.8887 5.66667 10.5364 5.66667 10.1017C5.66667 9.66706 5.3143 9.3147 4.87964 9.3147C4.44498 9.3147 4.09262 9.66706 4.09262 10.1017C4.09262 10.5364 4.44498 10.8887 4.87964 10.8887Z" fill="#858585"/>
<path d="M4.87964 14.0369C5.3143 14.0369 5.66667 13.6846 5.66667 13.2499C5.66667 12.8153 5.3143 12.4629 4.87964 12.4629C4.44498 12.4629 4.09262 12.8153 4.09262 13.2499C4.09262 13.6846 4.44498 14.0369 4.87964 14.0369Z" fill="#858585"/>
<path d="M11.963 9.3147H8.50001C8.15371 9.3147 7.87039 9.59801 7.87039 9.94432V13.4073C7.87039 13.7536 8.15371 14.0369 8.50001 14.0369H11.963C12.3093 14.0369 12.5926 13.7536 12.5926 13.4073V9.94432C12.5926 9.59801 12.3093 9.3147 11.963 9.3147ZM11.3333 12.7776H9.12963V10.5739H11.3333V12.7776Z" fill="#858585"/>
</g>
<defs>
<clipPath id="clip0_37_41">
<rect width="17" height="17" fill="white" transform="translate(0 0.5)"/>
</clipPath>
</defs>
</svg>
