<svg width="16" height="17" viewBox="0 0 16 17" fill="none" xmlns="http://www.w3.org/2000/svg">
<path fill-rule="evenodd" clip-rule="evenodd" d="M8.59564 15.6744C8.24198 15.9374 7.75798 15.9374 7.40432 15.6744C5.82032 14.4678 2.33331 11.3984 2.33331 7.50675C2.33331 4.37909 4.87231 1.84009 7.99998 1.84009C11.1276 1.84009 13.6666 4.37909 13.6666 7.50675C13.6666 11.3984 10.1796 14.4678 8.59564 15.6744ZM7.99998 5.17342C6.71231 5.17342 5.66665 6.21909 5.66665 7.50675C5.66665 8.79442 6.71231 9.84009 7.99998 9.84009C9.28765 9.84009 10.3333 8.79442 10.3333 7.50675C10.3333 6.21909 9.28765 5.17342 7.99998 5.17342Z" fill="white"/>
</svg>
