<svg width="16" height="17" viewBox="0 0 16 17" fill="none" xmlns="http://www.w3.org/2000/svg">
<g clip-path="url(#clip0_37_2834)">
<path d="M15.0175 12.1401C14.9765 12.1076 12 9.96209 11.183 10.1161C10.793 10.1851 10.57 10.4511 10.1225 10.9836C10.0505 11.0696 9.8775 11.2756 9.743 11.4221C9.4602 11.3298 9.18433 11.2176 8.9175 11.0861C7.54026 10.4156 6.4275 9.30283 5.757 7.92559C5.62543 7.6588 5.51315 7.38292 5.421 7.10009C5.568 6.96509 5.774 6.79209 5.862 6.71809C6.392 6.27309 6.6585 6.05009 6.7275 5.65909C6.869 4.84909 4.725 1.85209 4.7025 1.82509C4.60522 1.68612 4.47827 1.57052 4.33084 1.48664C4.1834 1.40276 4.01916 1.3527 3.85 1.34009C2.981 1.34009 0.5 4.55859 0.5 5.10059C0.5 5.13209 0.5455 8.33409 4.494 12.3506C8.5065 16.2946 11.708 16.3401 11.7395 16.3401C12.282 16.3401 15.5 13.8591 15.5 12.9901C15.4875 12.8215 15.4378 12.6578 15.3543 12.5108C15.2709 12.3638 15.1558 12.2372 15.0175 12.1401Z" fill="white"/>
</g>
<defs>
<clipPath id="clip0_37_2834">
<rect width="16" height="16" fill="white" transform="translate(0 0.840088)"/>
</clipPath>
</defs>
</svg>
